<svg width="165" height="32" viewBox="0 0 165 32" fill="none" xmlns="http://www.w3.org/2000/svg">
<path d="M23.21 19.6923H8.14V22.8571H19.4975C20.35 22.8571 17.985 30.8639 13.0625 30.8639H0.165V16.8791C0.165 15.5537 3.0525 12.0372 6.435 11.7126C6.765 11.7126 20.6525 11.7126 20.4875 11.7126C19.8 11.8749 21.835 11.388 22.6875 10.3871C23.1825 9.7109 23.0175 9.0617 23.375 8.54775H0C0.165 7.38461 0.8525 0.892639 7.1225 0.892639H31.35V25.8867C30.0025 28.5647 27.9675 30.8909 23.5675 30.7286" fill="#0E0E0E"/>
<path d="M140.937 16.0135C140.937 19.503 141.79 22.1809 143.467 24.0203C145.145 25.8597 147.207 26.6982 149.737 26.6982C152.267 26.6982 154.302 25.8597 156.007 24.0203C157.712 22.1809 158.372 19.53 158.372 16.0135C158.372 12.497 157.52 9.84615 156.007 8.00676C154.495 6.32966 152.267 5.32882 149.737 5.32882C147.207 5.32882 145.007 6.16737 143.467 8.00676C141.79 9.68385 140.937 12.3347 140.937 16.0135ZM134.502 16.1758C134.502 13.011 134.997 10.333 135.85 8.16906C136.537 6.68131 137.555 5.16652 138.737 4.00338C139.92 2.84023 141.267 1.83939 142.807 1.16314C144.842 0.324595 147.042 0 149.572 0C154.137 0 157.877 1.32544 160.765 4.16568C163.487 7.00592 165 11.0093 165 15.9865C165 20.9907 163.652 24.8047 160.93 27.645C158.042 30.4852 154.33 31.9729 149.737 31.9729C145.007 31.9729 141.267 30.6475 138.545 27.8073C135.85 25.0211 134.502 21.0177 134.502 16.1758ZM107.222 31.3508V0.513946H113.657V14.1741L126.527 0.513946H134.997L123.145 12.5241L135.685 31.3508H127.545L118.745 16.8521L113.657 22.0186V31.3508H107.222ZM75.8999 21.3424L82.0048 20.6661C82.3348 22.6678 83.1873 24.1555 84.2048 25.1564C85.3873 26.1572 86.9273 26.6441 88.7698 26.6441C90.8048 26.6441 92.3174 26.1572 93.3349 25.3187C94.3524 24.4801 94.8474 23.4793 94.8474 22.3161C94.8474 21.6399 94.6824 20.9907 94.1599 20.4768C93.6374 19.9628 92.9774 19.4759 91.9599 19.1513C91.2724 18.8267 89.5948 18.4751 86.8723 17.8259C83.4898 16.9873 81.1249 15.9865 79.7499 14.8233C77.8799 13.1462 76.8624 10.9822 76.8624 8.65596C76.8624 7.16822 77.3573 5.65342 78.2099 4.16568C79.0623 2.84024 80.4099 1.83939 82.1149 1.00084C83.8199 0.324594 85.8548 0 88.2198 0C92.1248 0 95.1774 0.838541 97.1849 2.48858C99.1924 4.13863 100.237 6.49197 100.402 9.33221L94.1324 9.6568C93.8023 7.97971 93.2799 6.97886 92.4274 6.16737C91.5749 5.49112 90.2273 5.16652 88.3573 5.16652C86.4873 5.16652 85.1398 5.49112 83.9573 6.32967C83.2698 6.81657 82.9399 7.49281 82.9399 8.16906C82.9399 8.8453 83.2698 9.49451 83.9573 10.0085C84.8098 10.6847 86.6798 11.3339 89.7048 12.0101C92.7573 12.6864 95.1223 13.4979 96.4698 14.1741C97.9823 15.0127 99.1923 16.0135 100.017 17.339C100.87 18.6644 101.2 20.3415 101.2 22.3432C101.2 24.1826 100.705 25.8326 99.6874 27.3474C98.6699 28.8352 97.3224 30.0254 95.4524 30.8369C93.5824 31.6754 91.3824 32 88.6874 32C84.7824 32 81.7298 31.1615 79.5298 29.3221C77.5773 27.5097 76.3949 24.8318 75.8999 21.3424ZM63.8548 19.1784L59.4548 7.68216L55.2198 19.1784H63.8548ZM75.5423 31.3508H68.5848L65.8623 24.3449H53.3223L50.7923 31.3508H44.0273L56.2373 0.513946H63.0023L75.5423 31.3508Z" fill="#0E0E0E"/>
</svg>
